<?xml version="1.0" encoding="UTF-8" standalone="no"?>
<!-- Created with Inkscape (http://www.inkscape.org/) -->

<svg
   class="self-profile"
   width="2560"
   height="1440"
   viewBox="0 0 2560 1440"
   version="1.1"
   id="svg5"
   xml:space="preserve"
   inkscape:version="1.2.2 (b0a84865, 2022-12-01)"
   sodipodi:docname="landing.svg"
   xmlns:inkscape="http://www.inkscape.org/namespaces/inkscape"
   xmlns:sodipodi="http://sodipodi.sourceforge.net/DTD/sodipodi-0.dtd"
   xmlns="http://www.w3.org/2000/svg"
   xmlns:svg="http://www.w3.org/2000/svg"><sodipodi:namedview
     id="namedview7"
     pagecolor="#505050"
     bordercolor="#eeeeee"
     borderopacity="1"
     inkscape:showpageshadow="0"
     inkscape:pageopacity="0"
     inkscape:pagecheckerboard="0"
     inkscape:deskcolor="#505050"
     inkscape:document-units="px"
     showgrid="false"
     inkscape:zoom="0.12989399"
     inkscape:cx="161.6703"
     inkscape:cy="739.06422"
     inkscape:window-width="1147"
     inkscape:window-height="456"
     inkscape:window-x="0"
     inkscape:window-y="30"
     inkscape:window-maximized="0"
     inkscape:current-layer="layer1" /><defs
     id="defs2"><linearGradient
       id="linearGradient37019"
       inkscape:swatch="gradient"><stop
         style="stop-color:#282809;stop-opacity:1;"
         offset="0"
         id="stop37015" /><stop
         style="stop-color:#282809;stop-opacity:0;"
         offset="1"
         id="stop37017" /></linearGradient><linearGradient
       id="linearGradient37009"
       inkscape:swatch="solid"><stop
         style="stop-color:#282809;stop-opacity:1;"
         offset="0"
         id="stop37007" /></linearGradient><rect
       x="1366.7797"
       y="616.27119"
       width="762.71186"
       height="372.20339"
       id="rect183" /><rect
       x="475.9322"
       y="482.0339"
       width="835.93223"
       height="347.79661"
       id="rect125" /><rect
       x="427.11864"
       y="482.0339"
       width="1903.7288"
       height="530.84746"
       id="rect119" /><rect
       x="549.15254"
       y="597.9661"
       width="1250.8475"
       height="262.37288"
       id="rect113" /></defs><g
     inkscape:label="Layer 1"
     inkscape:groupmode="layer"
     id="layer1"><g
       transform="matrix(0.06743083,0,0,-0.06743083,841.3452,847.0683)"
       fill="#000000"
       stroke="none"
       id="g61"
       inkscape:label="profile"
       style="fill:#000000;fill-opacity:1;stroke-width:5.44261431;stroke-dasharray:none"><path
         d="m 6136,11334 c -10,-9 -16,-33 -16,-58 0,-40 -4,-47 -52,-88 -29,-24 -107,-83 -174,-131 -96,-68 -125,-95 -143,-130 -31,-60 -72,-98 -156,-143 -85,-45 -105,-62 -105,-85 0,-37 64,-28 140,19 46,29 222,112 237,112 3,0 21,11 40,26 28,21 169,62 178,52 2,-2 -5,-33 -15,-69 -12,-47 -14,-72 -7,-85 13,-23 -15,-44 -60,-44 -18,0 -65,-13 -105,-29 -122,-48 -289,-93 -368,-99 -41,-3 -94,-13 -118,-23 -24,-10 -70,-26 -103,-34 -55,-15 -63,-15 -85,-1 -42,29 -100,14 -189,-48 -73,-50 -85,-67 -85,-117 0,-26 5,-51 10,-54 6,-3 10,-16 10,-29 0,-16 -20,-36 -77,-76 -114,-78 -166,-124 -219,-193 -26,-34 -64,-80 -85,-102 -21,-22 -46,-63 -57,-91 -11,-29 -33,-69 -51,-91 -50,-62 -72,-131 -65,-202 5,-48 2,-73 -19,-132 -40,-118 -71,-291 -62,-352 3,-23 2,-107 -3,-187 -7,-115 -15,-161 -36,-221 -33,-96 -33,-118 4,-176 17,-26 30,-51 30,-55 0,-5 13,-26 29,-49 16,-22 33,-55 37,-72 10,-47 38,-98 72,-129 42,-39 72,-138 72,-241 0,-121 25,-245 77,-378 36,-94 56,-130 96,-174 61,-69 85,-71 104,-6 16,56 36,77 78,85 18,4 39,13 45,21 15,17 14,93 0,192 -12,84 -12,546 0,748 14,237 36,373 87,523 57,169 84,235 138,337 23,45 48,109 55,141 20,104 39,148 101,237 61,88 86,111 106,99 19,-13 33,-51 33,-92 0,-79 43,-109 71,-48 23,51 42,57 95,29 30,-16 52,-37 65,-62 23,-46 37,-54 112,-63 l 58,-6 43,45 c 24,25 47,45 50,45 4,0 23,-7 43,-15 51,-22 62,-19 78,19 8,18 22,36 31,40 13,5 16,1 12,-24 -6,-42 11,-53 74,-46 29,4 116,10 193,14 94,5 152,13 175,24 42,20 201,61 282,73 31,5 42,14 67,55 31,50 31,50 83,50 29,0 86,-5 126,-10 85,-11 112,-2 159,53 23,28 37,35 77,40 57,6 90,28 129,86 39,56 60,68 141,79 l 70,9 28,-31 c 27,-30 29,-30 73,-18 60,16 80,15 95,-3 7,-8 31,-24 54,-35 22,-11 56,-28 74,-39 31,-18 38,-18 80,-5 26,7 52,14 59,14 24,0 43,-32 43,-71 0,-45 -14,-76 -59,-133 -17,-21 -31,-43 -31,-47 0,-24 39,-3 99,54 65,61 109,89 162,102 33,8 63,-19 55,-49 -4,-12 -9,-50 -13,-86 -5,-63 -5,-66 21,-79 14,-8 28,-23 32,-33 3,-10 30,-35 61,-55 43,-29 67,-38 114,-41 52,-4 65,-1 100,23 41,27 59,28 116,10 18,-6 26,0 47,33 32,51 62,72 103,72 26,0 39,-9 70,-47 80,-98 129,-146 176,-170 29,-14 52,-33 55,-45 7,-29 95,-207 125,-255 14,-22 63,-113 109,-204 76,-149 87,-177 117,-309 18,-80 47,-188 63,-240 17,-55 32,-128 35,-175 7,-93 23,-132 59,-141 47,-12 193,15 253,46 31,16 70,34 86,40 17,6 51,30 78,54 45,42 47,46 41,85 -6,37 -3,45 30,85 40,50 39,69 -5,91 -39,21 -60,19 -111,-10 -67,-37 -162,-59 -201,-46 -80,29 -87,72 -21,130 26,23 51,41 55,41 5,0 9,5 9,10 0,6 -12,10 -27,10 -32,0 -109,33 -135,57 234.36,573.0336 0.479,-16.0058 27,367 -9,21 -12,52 -8,88 3,30 1,77 -5,104 -10,47 0,402 13,499 6,36 0,51 -66,160 -40,66 -87,159 -106,206 -26,66 -42,93 -71,116 -20,17 -55,60 -76,97 -37,63 -57,84 -121,130 -15,10 -35,37 -45,60 -9,22 -42,65 -73,94 -52,49 -59,52 -107,52 -60,0 -97,14 -195,75 -73,46 -85,61 -100,130 -10,44 -21,53 -94,75 -36,11 -84,29 -106,40 -32,17 -51,19 -97,14 l -56,-6 -26,40 c -30,47 -55,64 -110,71 -34,5 -43,12 -66,51 -15,27 -40,52 -61,62 -49,24 -251,75 -390,98 -151,25 -508,53 -584,46 -33,-3 -120,-2 -194,3 -166,10 -229,0 -304,-52 -53,-37 -164,-67 -245,-67 -47,0 -36,21 20,40 80,27 98,55 53,84 -34,22 -136,21 -263,-4 -151,-29 -167,-28 -211,20 -41,45 -44,46 -65,24 z m 32,-1091 c 2,-15 -11,-38 -42,-71 -25,-27 -52,-65 -61,-85 l -15,-36 -69,6 c -68,6 -71,5 -98,-24 -15,-17 -37,-44 -48,-61 -11,-17 -32,-48 -47,-69 -18,-25 -33,-65 -43,-118 -18,-96 -33,-115 -68,-92 -18,12 -27,28 -31,59 -3,24 -8,62 -12,85 -5,37 -2,48 25,85 22,29 31,53 31,79 0,61 32,90 110,98 83,9 158,47 232,118 52,48 62,54 95,51 30,-2 39,-7 41,-25 z m 3990,-1933 c 53,-24 57,-54 10,-69 -61,-18 -97,-22 -142,-16 -93,14 -99,54 -15,87 58,22 95,22 147,-2 z"
         id="path27"
         sodipodi:nodetypes="csccccscsccccsccscccscsccsccccccccscccsccccccccccccsccccccscccccccccsccccccccccccsscscccccccccccsccccccccccccccccccsssccccccccccccsccccccccccccccscccccccccccsccccccsccccccccc"
         style="fill:#000000;fill-opacity:1;stroke-width:5.44261431;stroke-dasharray:none" /><path
         d="m 9205,8245 c -57,-9 -100,-10 -150,-3 -108,15 -251,5 -308,-21 -26,-12 -81,-29 -123,-36 -69,-14 -100,-26 -247,-95 -70,-33 -172,-156 -194,-234 -14,-49 -22,-61 -50,-74 -28,-13 -36,-25 -50,-71 -33,-117 -66,-172 -143,-240 -81,-72 -70,-70 -244,-52 -156,15 -237,33 -338,73 -68,27 -87,40 -110,73 -31,45 -35,70 -13,91 23,24 18,45 -23,99 -34,46 -42,51 -87,56 -28,3 -62,11 -76,17 -15,6 -47,14 -70,17 -24,4 -64,20 -88,36 -52,34 -54,34 -76,12 -13,-12 -16,-27 -12,-56 10,-73 -13,-85 -77,-42 -84,57 -184,105 -218,105 -20,0 -55,7 -78,15 -63,22 -80,19 -201,-30 -61,-25 -116,-45 -123,-45 -8,0 -44,-21 -82,-47 -64,-44 -73,-47 -156,-54 -74,-6 -94,-11 -124,-34 -28,-21 -33,-30 -23,-41 14,-17 64,-18 107,-3 27,9 35,8 65,-15 20,-16 71,-35 129,-50 98,-25 158,-50 158,-65 0,-25 -398,-136 -630,-176 -52,-9 -129,-25 -170,-35 -58,-13 -89,-16 -130,-9 -30,5 -91,10 -135,11 -70,3 -84,0 -112,-19 -17,-13 -37,-23 -45,-23 -26,0 -108,-60 -118,-86 -17,-44 38,-221 80,-259 17,-16 19,-15 29,3 6,11 15,53 21,93 22,146 40,167 116,134 21,-10 61,-23 87,-30 67,-19 199,-107 231,-156 37,-55 59,-116 96,-260 34,-133 100,-313 126,-345 15,-18 15,-18 10,0 -4,10 -18,73 -31,140 -54,264 -54,511 0,622 56,115 229,202 496,249 156,28 367,35 734,25 368,-10 451,-19 584,-64 84,-28 131,-62 169,-119 26,-39 27,-45 27,-176 0,-258 -81,-520 -237,-762 -81,-128 -170,-198 -310,-245 -80,-27 -310,-69 -435,-78 -45,-4 -92,-10 -104,-14 -18,-7 -12,-11 37,-25 32,-9 115,-26 184,-38 109,-19 139,-21 231,-12 106,9 106,9 158,54 58,49 241,267 294,350 18,30 73,129 120,222 47,92 104,197 126,235 49,81 71,142 71,192 0,52 18,98 41,105 24,8 71,-21 119,-70 19,-20 55,-51 80,-67 81,-55 101,-81 175,-228 94,-186 134,-246 256,-391 157,-187 188,-198 469,-168 361,39 619,102 669,163 18,21 13,21 -144,-9 -165,-32 -357,-55 -461,-55 -109,0 -244,25 -311,57 -66,30 -181,136 -233,213 -51,76 -135,245 -164,332 -44,130 -58,298 -25,298 5,0 27,-37 48,-83 49,-106 78,-132 141,-122 64,10 100,10 136,2 44,-11 64,10 57,61 -4,33 -1,44 26,75 46,52 75,58 230,48 134,-8 165,-6 188,12 7,5 33,50 58,100 61,125 63,123 -148,119 -150,-3 -165,-2 -187,16 -23,19 -24,23 -13,63 8,29 8,49 1,62 -13,25 8,40 102,71 170,57 290,77 610,102 l 218,18 118,-34 c 240,-67 260,-100 258,-435 -1,-174 -5,-229 -23,-323 -13,-63 -20,-116 -18,-119 12,-11 48,80 71,179 13,56 29,154 35,217 14,150 34,208 93,278 45,54 48,61 48,114 0,32 2,64 5,72 12,29 -28,58 -100,73 -88,18 -115,36 -115,73 0,16 -9,40 -20,54 -27,34 -154,97 -196,97 -65,0 -84,-57 -38,-117 14,-18 22,-38 19,-43 -11,-18 -80,-10 -165,20 -47,16 -92,30 -101,30 -23,0 -42,26 -35,48 4,11 24,27 46,37 55,25 73,56 77,140 4,57 1,76 -16,102 -24,38 -96,82 -148,90 -21,3 -59,16 -85,29 -52,26 -75,27 -193,9 z"
         id="path41"
         style="fill:#000000;fill-opacity:1;stroke-width:5.44261431;stroke-dasharray:none" /><path
         d="m 5527,7696 c -96,-36 -117,-69 -61,-95 37,-17 61,-14 137,16 83,32 98,53 61,82 -33,26 -62,25 -137,-3 z"
         id="path43"
         style="fill:#000000;fill-opacity:1;stroke-width:5.44261431;stroke-dasharray:none" /><path
         d="m 6780,7158 c -13,-5 -36,-22 -50,-38 -25,-30 -26,-30 -150,-34 -185,-6 -328,-48 -338,-100 -2,-9 17,-41 42,-71 37,-43 60,-59 116,-81 65,-25 74,-26 123,-15 78,17 93,32 117,112 19,64 47,109 68,109 14,0 51,-39 78,-81 30,-48 61,-64 107,-55 45,8 102,70 111,120 10,50 -10,78 -76,109 -62,30 -113,38 -148,25 z"
         id="path47"
         style="fill:#000000;fill-opacity:1;stroke-width:5.44261431;stroke-dasharray:none" /><path
         d="m 5997,6897 c -57,-18 -67,-24 -65,-41 4,-25 51,-53 103,-61 57,-8 69,4 70,67 0,64 -7,66 -108,35 z"
         id="path49"
         style="fill:#000000;fill-opacity:1;stroke-width:5.44261431;stroke-dasharray:none" /><path
         d="m 10389,6811 c -24,-16 -79,-63 -123,-104 -75,-72 -78,-77 -72,-109 11,-54 26,-436 20,-518 -9,-125 29,-208 75,-166 29,27 48,73 81,198 16,62 46,154 66,203 29,71 39,115 51,220 8,71 13,162 10,202 -6,109 -29,125 -108,74 z"
         id="path51"
         style="fill:#000000;fill-opacity:1;stroke-width:5.44261431;stroke-dasharray:none" /><path
         d="m 9275.5077,5065.4939 c 10,-30 -111.3266,-2.0307 -185.3266,-35.0307 -46,-21 -124.1855,55.5544 -178.1811,103.8804 -87,16 -185,152.6564 -197,213.6564 -14,66 -21,77 -65,100 -52,26 -109,28 -153,6 -17,-9 -63,-43 -100,-75 -79,-66 -187,-123 -267,-140 -117,-25 -298,9 -462,87 -88,43 -101,46 -156,42 -67,-5 -140,-42 -175,-90 -21,-28 -21,-28 -1,-54 33,-45 111,-82 203,-96 97,-15 115,-30 87,-73 -16,-24 -21,-26 -59,-19 -23,4 -55,8 -72,8 -26,1 -30,-3 -33,-29 -2,-18 5,-47 19,-72 22,-40 22,-43 5,-61 -9,-11 -33,-23 -52,-26 -41,-8 -59,-34 -68,-98 -9,-58 11,-101 55,-124 41,-21 61,-14 141,44 69,51 107,65 222,82 82,13 171,43 198,67 10,9 25,40 34,70 8,29 20,56 26,59 25,15 71,3 145,-39 43,-24 110,-61 149,-81 988.5787,57.9892 973.7968,-289.3738 863.6035,-589.2187 35.1458,-93.6559 -38.8743,-90.5637 -52.8743,-168.5637 C 9199.4581,4003.8532 9061,4044 9060,4019 c 0,-50 -8,-60 -63,-88 -41,-21 -45,-44 -13,-85 87,-115 94,-171 45,-368 -5,-20 -21,-50 -34,-66 -33,-40 -170,-132 -196,-132 -11,0 -43,-10 -70,-21 l -49,-21 -50,21 c -30,13 -59,19 -74,15 -28,-7 -55,6 -113,53 -45,36 -52,57 -29,89 10,13 13,34 9,65 -7,56 -11,52 169,142 109,55 128,69 171,122 26,33 61,86 77,118 16,32 40,72 55,89 14,17 25,38 23,47 -5,25 -43,24 -74,-2 -38,-32 -134,-79 -215,-105 -59,-20 -338,-61 -559,-83 -52,-6 -131,-19 -175,-30 -44,-12 -100,-25 -125,-29 -66,-12 -79,-19 -87,-48 -8,-34 30,-66 105,-88 31,-9 79,-28 106,-41 31,-16 77,-27 131,-33 46,-5 97,-16 114,-24 16,-9 41,-16 54,-16 13,0 31,-6 41,-13 16,-12 17,-17 6,-36 -11,-22 -10,-54 5,-127 7,-33 12,-26 -98,-141 -16,-18 -61,-54 -99,-80 -38,-26 -92,-67 -119,-90 -41,-36 -54,-42 -79,-36 -23,4 -40,-1 -69,-20 -60,-40 -81,-41 -151,-13 -55,22 -71,25 -136,19 -74,-6 -75,-6 -127,30 -29,20 -69,39 -88,43 -18,3 -44,7 -56,10 -13,2 -35,22 -49,43 -14,22 -40,45 -57,52 -68,28 -139,79 -177,126 -22,28 -54,60 -73,73 -18,12 -43,38 -56,57 -20,32 -22,43 -16,117 4,49 2,95 -5,116 -6,19 -15,85 -19,147 -7,86 -13,119 -30,146 -17,28 -21,50 -21,114 0,112 17,160 85,237 92,105 177,148 324,162 81,8 358.8297,161.0149 358.8297,192.0149 -52.1163,305.6721 -8.0217,262.4295 -86.5426,203.3145 C 7439.2871,4867.3294 7126,4715 7105,4746 c -14,22 -20,24 -68,18 -41,-4 -60,-1 -92,15 -53,28 -91,26 -150,-9 -56,-33 -98,-37 -152,-15 -19,8 -44,15 -54,15 -34,0 -151,-129 -204,-225 l -49,-90 2,-95 c 6,-230 27,-306 114,-405 21,-23 42,-55 48,-69 23,-63 4,-142 -43,-175 -48,-35 -224,-111 -257,-111 -19,0 -55,-10 -80,-21 -25,-11 -67,-23 -95,-26 -27,-3 -56,-10 -62,-16 -16,-12 -16,-66 0,-93 47,-81 112,-160 154,-189 45,-30 110,-113 206,-260 26,-41 45,-56 104,-85 116,-56 153,-94 212,-213 37,-76 62,-114 92,-138 22,-19 64,-58 94,-87 37,-36 61,-52 80,-52 39,0 81,-25 105,-65 25,-41 103,-96 207,-147 39,-19 93,-53 120,-75 59,-48 133,-92 193,-115 25,-9 63,-23 85,-32 22,-8 56,-15 75,-16 19,0 54,-9 78,-20 24,-11 72,-25 106,-31 53,-9 69,-8 102,6 28,11 67,16 139,15 55,-1 107,-1 116,-1 9,1 34,13 55,27 21,15 77,38 124,51 60,18 95,35 121,58 24,22 52,35 80,40 46,7 74,22 118,60 14,13 41,34 60,47 23,16 40,39 53,75 12,34 47,84 101,146 45,52 105,125 132,162 50,66 59,81 109,185 15,30 42,76 61,103 103.5759,156.494 73.9465,123.3668 251,401 19,19 17,19 59,2 42,-18 43,-12 13,61 -28,68 -16,100 52,137 85,46 147,133 135,192 -11,59 10,106 70,161 l 55,51 v 88 c 0,63 8,118 26,192 34,131 28,152 -42,152 h -46 l 6,43 c 7,48 -10,75 -39,63 -10,-3 -34,11 -66,41 -38,37 -53,60 -65,103 -22,75 -34.9173,110.3253 -100.9173,307.3253 -57,170 1.3325,38.1952 -80.6675,129.1952 -136.0154,28.55 -60.2316,-14.3572 -196.9075,48.9734 z"
         id="path55"
         sodipodi:nodetypes="ccccccccccccccccccccccccccccccccccccscccccccccsccccccccccccsccccscccscccccscccccccscccccccccsccccccsscccccccccsccccccsccccccccccccccccccccccscscccccccc"
         style="fill:#000000;fill-opacity:1;stroke-width:5.44261431;stroke-dasharray:none" /><path
         d="m 4608,5435 c -111,-75 -47,-118 222,-151 30,-3 66,-11 79,-15 48,-19 66,35 37,105 -13,32 -17,34 -53,29 -31,-4 -53,2 -101,26 -78,39 -133,41 -184,6 z"
         id="path57"
         style="fill:#000000;fill-opacity:1;stroke-width:5.44261431;stroke-dasharray:none" /></g><text
       xml:space="preserve"
       style="font-style:italic;font-variant:normal;font-weight:bold;font-stretch:normal;font-size:266.667px;font-family:'Courier New';-inkscape-font-specification:'Courier New Bold Italic';fill:#ff9955"
       x="959.4613"
       y="770.39923"
       id="text1138"
       inkscape:label="quote"><tspan
         sodipodi:role="line"
         id="tspan1136"
         x="959.4613"
         y="770.39923" /><tspan
         sodipodi:role="line"
         x="959.4613"
         y="1103.7329"
         id="tspan1140"
         style="font-style:italic;font-variant:normal;font-weight:bold;font-stretch:normal;font-size:160px;font-family:sans-serif;-inkscape-font-specification:'sans-serif Bold Italic';fill:#ff9955">अहं ब्रह्मास्मि </tspan></text><g
       id="g1021"
       inkscape:label="text"
       transform="translate(87.189773,78.597607)"><text
         xml:space="preserve"
         id="text123"
         style="font-size:266.667px;white-space:pre;shape-inside:url(#rect125);display:inline;fill:#e6e6e6;fill-opacity:1"
         inkscape:label="rishi"
         transform="translate(24.219568,99.912963)"><tspan
           x="475.93164"
           y="725.32158"
           id="tspan38579"><tspan
             style="font-weight:bold;font-family:'Courier New';-inkscape-font-specification:'Courier New Bold'"
             id="tspan38577">rishi</tspan></tspan></text><text
         xml:space="preserve"
         id="text181"
         style="font-style:normal;font-variant:normal;font-weight:normal;font-stretch:normal;font-size:266.667px;font-family:'Courier New';-inkscape-font-specification:'Courier New';white-space:pre;shape-inside:url(#rect183);display:inline;fill:#e6e6d6;fill-opacity:1"
         inkscape:label="says"
         transform="translate(-28.552914,-45.083945)"><tspan
           x="1366.7793"
           y="853.54579"
           id="tspan38583"><tspan
             style="font-style:italic;font-weight:bold;-inkscape-font-specification:'Courier New Bold Italic'"
             id="tspan38581">says</tspan></tspan></text></g></g></svg>
